<svg width="5" height="21" viewBox="0 0 5 21" fill="none" xmlns="http://www.w3.org/2000/svg">
<path fill-rule="evenodd" clip-rule="evenodd" d="M2.41667 5.72273C3.74584 5.72273 4.83334 4.64074 4.83334 3.3183C4.83334 1.99587 3.74584 0.913879 2.41667 0.913879C1.0875 0.913879 0 1.99587 0 3.3183C0 4.64074 1.0875 5.72273 2.41667 5.72273ZM2.41667 8.12715C1.0875 8.12715 0 9.20914 0 10.5316C0 11.854 1.0875 12.936 2.41667 12.936C3.74584 12.936 4.83334 11.854 4.83334 10.5316C4.83334 9.20914 3.74584 8.12715 2.41667 8.12715ZM2.41667 15.3404C1.0875 15.3404 0 16.4224 0 17.7449C0 19.0673 1.0875 20.1493 2.41667 20.1493C3.74584 20.1493 4.83334 19.0673 4.83334 17.7449C4.83334 16.4224 3.74584 15.3404 2.41667 15.3404Z" fill="white"/>
</svg>
