<svg width="39" height="28" viewBox="0 0 39 28" fill="none" xmlns="http://www.w3.org/2000/svg">
<rect x="5" width="28" height="28" rx="14" fill="#F1CB00"/>
<g filter="url(#filter0_d_689_16)">
<path d="M22.216 17.9717C22.216 17.3128 21.9833 16.7578 21.5178 16.3066C21.0594 15.8555 20.2824 15.4473 19.1867 15.082C17.6613 14.6165 16.5477 14.0114 15.8459 13.2666C15.1512 12.5146 14.8039 11.5622 14.8039 10.4092C14.8039 9.2347 15.1441 8.27148 15.8244 7.51953C16.5119 6.76758 17.4536 6.31999 18.6496 6.17676V3.82422H20.2502V6.1875C21.4533 6.35221 22.3879 6.8571 23.0539 7.70215C23.7271 8.5472 24.0637 9.70378 24.0637 11.1719H22.0871C22.0871 10.1621 21.8472 9.36003 21.3674 8.76562C20.8876 8.17122 20.2394 7.87402 19.423 7.87402C18.5708 7.87402 17.9191 8.09603 17.468 8.54004C17.0168 8.97689 16.7912 9.58919 16.7912 10.377C16.7912 11.1074 17.0275 11.6911 17.5002 12.1279C17.98 12.5576 18.7642 12.9515 19.8527 13.3096C20.9484 13.6605 21.8006 14.0508 22.4094 14.4805C23.0253 14.903 23.4764 15.3971 23.7629 15.9629C24.0565 16.5286 24.2033 17.1911 24.2033 17.9502C24.2033 19.1605 23.8381 20.1344 23.1076 20.8721C22.3843 21.6097 21.3674 22.0465 20.0568 22.1826V24.2344H18.467V22.1826C17.135 22.0609 16.0894 21.5882 15.3303 20.7646C14.5783 19.9339 14.2023 18.8096 14.2023 17.3916H16.1896C16.1896 18.387 16.451 19.1533 16.9738 19.6904C17.4966 20.2275 18.2378 20.4961 19.1975 20.4961C20.1356 20.4961 20.8732 20.2705 21.4103 19.8193C21.9475 19.3682 22.216 18.7523 22.216 17.9717Z" fill="white"/>
</g>
<defs>
<filter id="filter0_d_689_16" x="11.2024" y="0.824219" width="16.001" height="26.4102" filterUnits="userSpaceOnUse" color-interpolation-filters="sRGB">
<feFlood flood-opacity="0" result="BackgroundImageFix"/>
<feColorMatrix in="SourceAlpha" type="matrix" values="0 0 0 0 0 0 0 0 0 0 0 0 0 0 0 0 0 0 127 0" result="hardAlpha"/>
<feOffset/>
<feGaussianBlur stdDeviation="1.5"/>
<feColorMatrix type="matrix" values="0 0 0 0 0 0 0 0 0 0 0 0 0 0 0 0 0 0 0.25 0"/>
<feBlend mode="normal" in2="BackgroundImageFix" result="effect1_dropShadow_689_16"/>
<feBlend mode="normal" in="SourceGraphic" in2="effect1_dropShadow_689_16" result="shape"/>
</filter>
</defs>
</svg>
